<?xml version="1.0" encoding="UTF-8"?>
<svg version="1.1" xmlns="http://www.w3.org/2000/svg" width="500" height="500">
<path d="M0 0 C5.30502517 3.78930369 10.23001975 7.8921611 15.125 12.1875 C20.81164528 17.17588616 26.61931255 21.95166389 32.60791016 26.57299805 C34.8502862 28.30370644 36.9943696 29.9943696 39 32 C39.125 34.625 39.125 34.625 39 37 C39.721875 36.649375 40.44375 36.29875 41.1875 35.9375 C44.54609504 34.81796832 45.64227834 34.92326225 49 36 C51.56525453 37.59078976 53.89714756 39.42582476 56.25 41.3125 C56.88679687 41.79912109 57.52359375 42.28574219 58.1796875 42.78710938 C59.08847656 43.50543945 59.08847656 43.50543945 60.015625 44.23828125 C60.56508789 44.67180908 61.11455078 45.10533691 61.68066406 45.55200195 C64.98596638 49.17963853 64.1347631 54.64673627 64.11352539 59.25683594 C64.11367142 60.08647354 64.11381744 60.91611115 64.1139679 61.77088928 C64.11327212 64.5087446 64.10549539 67.24653159 64.09765625 69.984375 C64.09579088 71.88437869 64.09436754 73.78438286 64.09336853 75.68438721 C64.08955273 80.68208141 64.07973041 85.67974649 64.06866455 90.6774292 C64.05843031 95.77843838 64.05386659 100.87945226 64.04882812 105.98046875 C64.03810732 115.98699195 64.02104212 125.99349355 64 136 C65.10565308 136.15136917 66.21130615 136.30273834 67.35046387 136.45869446 C70.2897171 136.89464961 72.75280104 137.43441051 75.53125 138.41796875 C76.3351416 138.69987061 77.1390332 138.98177246 77.96728516 139.2722168 C78.80308105 139.57426025 79.63887695 139.87630371 80.5 140.1875 C81.80590088 140.65506714 81.80590088 140.65506714 83.13818359 141.13208008 C85.76238171 142.07849249 88.38149087 143.03797598 91 144 C91.77762695 144.28101563 92.55525391 144.56203125 93.35644531 144.8515625 C95.45269184 145.61349772 97.53986466 146.3957387 99.625 147.1875 C100.81351563 147.63480469 102.00203125 148.08210937 103.2265625 148.54296875 C106.28653373 150.1505311 106.68160242 150.95553731 108 154 C100.00340703 154.10803165 92.05876269 154.0108 84.07421875 153.5625 C59.54716579 152.20723116 35.05924619 151.75 10.5 151.75 C9.70929611 151.75 8.91859222 151.75 8.10392761 151.75 C-19.17064942 151.76111979 -46.39086743 152.36964377 -73.6363678 153.69512939 C-79.09816303 153.95395725 -84.53186206 154.03864165 -90 154 C-86.9071735 150.47178243 -84.09720124 148.97520505 -79.72265625 147.34375 C-78.81186562 147.00023499 -78.81186562 147.00023499 -77.88267517 146.64978027 C-76.59776386 146.16749284 -75.31088678 145.69041416 -74.0222168 145.21826172 C-72.09571322 144.51217308 -70.17549282 143.7909362 -68.25585938 143.06640625 C-60.23357827 140.06950408 -52.21301979 137.52708301 -44 135 C-43.67 118.83 -43.34 102.66 -43 86 C-42.34 86 -41.68 86 -41 86 C-41 85.34 -41 84.68 -41 84 C-41.66 84 -42.32 84 -43 84 C-43 83.01 -43 82.02 -43 81 C-42.34 80.67 -41.68 80.34 -41 80 C-40.9320385 78.36070876 -40.92832991 76.71863703 -40.953125 75.078125 C-40.38627419 67.46260766 -36.11425413 63.76664414 -30.75 58.75 C-29.89019531 57.88503906 -29.03039062 57.02007812 -28.14453125 56.12890625 C-21.83658894 50.01535353 -21.83658894 50.01535353 -18.71191406 49.95800781 C-17.81698242 50.30186523 -16.92205078 50.64572266 -16 51 C-15.31762268 51.20817856 -14.63524536 51.41635712 -13.93218994 51.63084412 C-11.24566423 52.76918443 -9.83762578 53.71233444 -8 56 C-6.84200525 61.32605439 -7.06945889 66.60641927 -7.21875 72.01953125 C-7.2336795 73.60419354 -7.24506319 75.18889287 -7.25305176 76.77360535 C-7.28353208 80.9355242 -7.3620533 85.09519308 -7.45068359 89.25622559 C-7.53266753 93.50579386 -7.56908962 97.75572745 -7.609375 102.00585938 C-7.69505713 110.33826976 -7.83150782 118.66885467 -8 127 C-6.35 126.67 -4.7 126.34 -3 126 C-3 124.68 -3 123.36 -3 122 C-4.32 122 -5.64 122 -7 122 C-7 89.66 -7 57.32 -7 24 C-7.66 24 -8.32 24 -9 24 C-9.58554796 18.1724036 -7.59141892 14.25830665 -5.0625 9.1875 C-4.50272461 8.02444336 -4.50272461 8.02444336 -3.93164062 6.83789062 C-1.18849649 1.18849649 -1.18849649 1.18849649 0 0 Z M2 12 C2 12.99 2 13.98 2 15 C2.66 15 3.32 15 4 15 C3.67 26.22 3.34 37.44 3 49 C2.67 49 2.34 49 2 49 C2 74.41 2 99.82 2 126 C7.445 125.505 7.445 125.505 13 125 C13 120.71 13 116.42 13 112 C14.34835938 112.28875 15.69671875 112.5775 17.0859375 112.875 C18.84893578 113.25010602 20.61195785 113.62510023 22.375 114 C23.70917969 114.28617188 23.70917969 114.28617188 25.0703125 114.578125 C26.34648437 114.84882813 26.34648437 114.84882813 27.6484375 115.125 C28.43395996 115.29257812 29.21948242 115.46015625 30.02880859 115.6328125 C31.99351325 116.06104229 31.99351325 116.06104229 34 116 C34 120.29 34 124.58 34 129 C35.65 129.33 37.3 129.66 39 130 C39.13893716 118.20430856 39.24558932 106.40881132 39.31087303 94.61246872 C39.34220407 89.13506956 39.38470999 83.65822962 39.45263672 78.18115234 C39.51776493 72.8967361 39.55369268 67.61285816 39.56926346 62.32807159 C39.58036149 60.31054456 39.60203357 58.29304745 39.63438034 56.27574921 C39.67785708 53.45238788 39.68393784 50.63125866 39.68115234 47.80761719 C39.702724 46.97108109 39.72429565 46.13454498 39.746521 45.2726593 C39.72249618 43.0263388 39.64251209 41.15314544 39 39 C36.25730243 36.50069008 36.25730243 36.50069008 33 35 C30.81454215 33.33115409 28.65057292 31.6497023 26.5 29.9375 C25.90340576 29.46650879 25.30681152 28.99551758 24.69213867 28.51025391 C21.48057511 25.97407993 18.27946397 23.42504813 15.08203125 20.87109375 C14.45039063 20.36908447 13.81875 19.8670752 13.16796875 19.34985352 C11.95280447 18.3839578 10.74044629 17.41451872 9.53125 16.44116211 C7.02282138 14.45006018 5.06570091 13.0219003 2 12 Z M48 43 C48 45.31 48 47.62 48 50 C49.010625 50.2475 50.02125 50.495 51.0625 50.75 C55.13378354 51.89660638 58.40244406 53.79741473 62 56 C62 54.68 62 53.36 62 52 C59.87331899 50.21346963 57.88022867 48.74014178 55.5625 47.25 C54.95083984 46.83878906 54.33917969 46.42757812 53.70898438 46.00390625 C51.06579218 43.91386146 51.06579218 43.91386146 48 43 Z M51 52 C51 78.4 51 104.8 51 132 C51.99 132.33 52.98 132.66 54 133 C54.33 106.93 54.66 80.86 55 54 C53.68 53.34 52.36 52.68 51 52 Z M57 56 C57 81.74 57 107.48 57 134 C57.99 134 58.98 134 60 134 C60.06941369 124.12541735 60.12276721 114.25089244 60.15543652 104.3761158 C60.17111366 99.79118375 60.19238906 95.20641822 60.22631836 90.62158203 C60.25883911 86.19956697 60.27683757 81.77771239 60.28463173 77.35558701 C60.29018839 75.6658157 60.30103878 73.9760535 60.31719017 72.28635025 C60.33886814 69.92524262 60.34197105 67.5648039 60.34057617 65.20361328 C60.351362 64.50014771 60.36214783 63.79668213 60.3732605 63.07189941 C60.39458593 60.92357862 60.39458593 60.92357862 60 58 C59.01 57.34 58.02 56.68 57 56 Z M-28 72 C-28.99 73.485 -28.99 73.485 -30 75 C-28.68 74.34 -27.36 73.68 -26 73 C-26.66 72.67 -27.32 72.34 -28 72 Z M-34 77 C-34.99 78.485 -34.99 78.485 -36 80 C-34.68 79.34 -33.36 78.68 -32 78 C-32.66 77.67 -33.32 77.34 -34 77 Z M28 117 C28 119.31 28 121.62 28 124 C28.33 124 28.66 124 29 124 C29 121.69 29 119.38 29 117 C28.67 117 28.34 117 28 117 Z M-9.5 135.875 C-11.37171875 136.13603516 -11.37171875 136.13603516 -13.28125 136.40234375 C-20.41864449 137.30496657 -20.41864449 137.30496657 -27 140 C-25.20949219 139.89171875 -25.20949219 139.89171875 -23.3828125 139.78125 C-0.02212264 138.48752634 23.66294639 138.1383547 47 140 C47 139.67 47 139.34 47 139 C42.94949637 138.27476697 38.89680292 137.56340086 34.84179688 136.86376953 C33.46811455 136.6248822 32.09503808 136.38247913 30.72265625 136.13623047 C16.85219501 133.65212009 4.46412587 133.78925662 -9.5 135.875 Z M-84 151 C-84 151.33 -84 151.66 -84 152 C-76.1991927 152.19375655 -68.62277194 151.42828533 -60.875 150.5625 C-58.41437716 150.29011114 -55.95343576 150.02058484 -53.4921875 149.75390625 C-52.41308105 149.63345947 -51.33397461 149.5130127 -50.22216797 149.38891602 C-37.93232964 148.1900844 -25.69978708 147.81767026 -13.36328125 147.76171875 C-12.54415504 147.75697855 -11.72502884 147.75223835 -10.88108063 147.74735451 C-4.69156041 147.71213884 1.49789377 147.69704656 7.6875 147.6875 C8.59251881 147.6854657 9.49753761 147.6834314 10.42998123 147.68133545 C36.58623475 147.62619963 62.36969182 148.18455302 88.36393738 151.38581848 C93.62070338 152.01730721 98.7125185 152.16936878 104 152 C104 151.67 104 151.34 104 151 C39.86573028 137.65312564 -19.86669446 137.13427189 -84 151 Z " fill="#030405" transform="translate(240,173)"/>
<path d="M0 0 C4.35752689 2.0597907 7.95435744 4.80819764 11.75 7.75 C12.79607422 8.51957031 12.79607422 8.51957031 13.86328125 9.3046875 C18.89640316 13.22480985 18.89640316 13.22480985 19.453125 17.390625 C19.30359375 18.25171875 19.1540625 19.1128125 19 20 C19.33 18.35 19.66 16.7 20 15 C20.33 15 20.66 15 21 15 C21 17.64 21 20.28 21 23 C20.67 23 20.34 23 20 23 C19.67 24.65 19.34 26.3 19 28 C14.57751429 25.81877402 10.28639122 23.43561781 6 21 C5.36707031 20.66871094 4.73414063 20.33742187 4.08203125 19.99609375 C2.4375 19.0625 2.4375 19.0625 0 17 C-0.375 14 -0.375 14 0 11 C0 9.68 0 8.36 0 7 C0 4.66666667 0 2.33333333 0 0 Z M2 11 C2.33 11.66 2.66 12.32 3 13 C3.66 12.67 4.32 12.34 5 12 C4.01 11.67 3.02 11.34 2 11 Z M5 13 C5 13.66 5 14.32 5 15 C5.66 14.67 6.32 14.34 7 14 C6.34 13.67 5.68 13.34 5 13 Z " fill="#030303" transform="translate(253,201)"/>
<path d="M0 0 C3.4100709 0.01710789 6.81943934 0.0069038 10.22948647 -0.01034164 C29.55001581 -0.09267978 49.04695586 0.42367921 68.02709961 4.39111328 C68.02709961 4.72111328 68.02709961 5.05111328 68.02709961 5.39111328 C50.68428266 4.50464896 50.68428266 4.50464896 42.11521912 3.96252441 C8.88246507 1.86399892 -23.78683087 3.05444937 -56.97290039 5.39111328 C-56.64290039 4.73111328 -56.31290039 4.07111328 -55.97290039 3.39111328 C-52.02000828 2.48879466 -47.94366696 2.20676545 -43.91430664 1.78955078 C-42.03758018 1.59357803 -42.03758018 1.59357803 -40.12294006 1.39364624 C-26.7628717 0.11225579 -13.41296422 -0.06784915 0 0 Z " fill="#070709" transform="translate(244.972900390625,315.60888671875)"/>
<path d="M0 0 C4.27050603 0.89485586 7.47159073 3.05474712 11.0625 5.4375 C11.68705078 5.84548828 12.31160156 6.25347656 12.95507812 6.67382812 C15.64649769 8.43459674 18.32395697 10.21597131 21 12 C21.29296875 14.3828125 21.29296875 14.3828125 21.1875 17.125 C21.16042969 18.03507812 21.13335937 18.94515625 21.10546875 19.8828125 C21.07066406 20.58148438 21.03585937 21.28015625 21 22 C18.43623236 20.73167312 15.87397788 19.46043635 13.3125 18.1875 C12.59126953 17.83107422 11.87003906 17.47464844 11.12695312 17.10742188 C7.31859523 15.21193781 3.61126143 13.25792874 0 11 C0.185625 10.195625 0.37125 9.39125 0.5625 8.5625 C0.706875 7.716875 0.85125 6.87125 1 6 C0.67 5.67 0.34 5.34 0 5 C-0.04063832 3.33382885 -0.042721 1.66611905 0 0 Z " fill="#060608" transform="translate(253,223)"/>
<path d="M0 0 C2.99156701 0.63644122 5.41938953 1.61952013 8.109375 3.06640625 C8.86347656 3.46923828 9.61757813 3.87207031 10.39453125 4.28710938 C11.56048828 4.91842773 11.56048828 4.91842773 12.75 5.5625 C13.93916016 6.19961914 13.93916016 6.19961914 15.15234375 6.84960938 C17.10367662 7.89580592 19.05212392 8.94738138 21 10 C21 13.3 21 16.6 21 20 C17.67634902 18.62686247 14.36785961 17.22844156 11.0625 15.8125 C9.64420898 15.23145508 9.64420898 15.23145508 8.19726562 14.63867188 C7.29814453 14.24873047 6.39902344 13.85878906 5.47265625 13.45703125 C4.64000244 13.10616455 3.80734863 12.75529785 2.94946289 12.39379883 C1 11 1 11 0.22436523 8.5534668 C-0.02737785 5.68841684 -0.06685128 2.87460501 0 0 Z M13 11 C13.33 11.66 13.66 12.32 14 13 C14.66 12.67 15.32 12.34 16 12 C15.01 11.67 14.02 11.34 13 11 Z " fill="#07080A" transform="translate(253,238)"/>
<path d="M0 0 C7.1178153 2.03807293 14.06707281 4.40344742 21 7 C21 10.3 21 13.6 21 17 C14.4 15.02 7.8 13.04 1 11 C0.21052896 7.0526448 -0.09202608 3.95712151 0 0 Z " fill="#070708" transform="translate(253,265)"/>
<path d="M0 0 C4.40958108 0.66607439 8.26572186 2.26624729 12.3125 4.0625 C13.28026367 4.48499023 13.28026367 4.48499023 14.26757812 4.91601562 C15.84698358 5.6062743 17.42376493 6.30253198 19 7 C19 9.97 19 12.94 19 16 C12.24866125 14.69328927 6.33717138 12.67767805 0 10 C0 6.7 0 3.4 0 0 Z " fill="#08080A" transform="translate(253,252)"/>
<path d="M0 0 C0.99 0 1.98 0 3 0 C3 16.17 3 32.34 3 49 C2.34 49 1.68 49 1 49 C0.67 49.66 0.34 50.32 0 51 C-1.23020843 48.53958313 -1.085134 47.02247347 -1.02172852 44.27490234 C-1.00163223 43.29403656 -0.98153595 42.31317078 -0.96083069 41.30258179 C-0.93379562 40.24108917 -0.90676056 39.17959656 -0.87890625 38.0859375 C-0.85529526 37.00116119 -0.83168427 35.91638489 -0.80735779 34.79873657 C-0.7306057 31.32402838 -0.64663096 27.84953662 -0.5625 24.375 C-0.50929088 22.02344819 -0.45655042 19.67188573 -0.40429688 17.3203125 C-0.27497497 11.54674023 -0.1397181 5.77332952 0 0 Z " fill="#1A1A1B" transform="translate(197,259)"/>
<path d="M0 0 C30.76225388 -0.39303125 30.76225388 -0.39303125 43.5546875 1.5625 C46.23139354 1.90239918 48.61208217 2.03387051 51.2890625 2 C54.70095812 2 56.22594779 2.15063186 59 4 C59 4.33 59 4.66 59 5 C56.08319624 4.85660065 53.16658083 4.71031461 50.25 4.5625 C49.44433594 4.52318359 48.63867188 4.48386719 47.80859375 4.44335938 C43.28921456 4.21205257 38.78864243 3.90376525 34.28125 3.5 C27.27854772 2.89808233 20.27345305 2.6611068 13.25 2.4375 C11.96867188 2.39431641 10.68734375 2.35113281 9.3671875 2.30664062 C6.24486934 2.20178666 3.12248879 2.09961982 0 2 C0 1.34 0 0.68 0 0 Z " fill="#100F11" transform="translate(239,311)"/>
<path d="M0 0 C2 2 2 2 2 4 C1.34 4 0.68 4 0 4 C0 4.66 0 5.32 0 6 C-3.63 6.66 -7.26 7.32 -11 8 C-6.38 7.67 -1.76 7.34 3 7 C3 7.99 3 8.98 3 10 C-9.375 10.495 -9.375 10.495 -22 11 C-17.5 6.5 -17.5 6.5 -13.671875 5.078125 C-12.87265625 4.77519531 -12.0734375 4.47226562 -11.25 4.16015625 C-10.425 3.85980469 -9.6 3.55945313 -8.75 3.25 C-7.90953125 2.93417969 -7.0690625 2.61835938 -6.203125 2.29296875 C-4.13883539 1.51886015 -2.0713542 0.75495577 0 0 Z " fill="#030304" transform="translate(172,316)"/>
<path d="M0 0 C1.485 0.99 1.485 0.99 3 2 C3.23291016 3.9519043 3.23291016 3.9519043 3.0390625 6.32421875 C2.97976562 7.18853516 2.92046875 8.05285156 2.859375 8.94335938 C2.78203125 9.84892578 2.7046875 10.75449219 2.625 11.6875 C2.15352472 17.69007875 1.98786943 23.05856177 3 29 C2.69208308 30.671549 2.35613097 32.33805547 2 34 C1.90857178 37.00189322 1.9411297 39.99761451 2 43 C-0.74325782 38.99427405 -0.25301454 34.73133001 -0.1953125 30.078125 C-0.1924826 29.21813904 -0.18965271 28.35815308 -0.18673706 27.47210693 C-0.1755615 24.73126179 -0.15046179 21.99074602 -0.125 19.25 C-0.1149668 17.38932764 -0.10584155 15.52865015 -0.09765625 13.66796875 C-0.07563076 9.11185268 -0.04111897 4.55598214 0 0 Z " fill="#0A0B0D" transform="translate(233,197)"/>
<path d="M0 0 C6.1112924 1.0388092 12.07704464 2.15730278 18 4 C18 5.32 18 6.64 18 8 C11.54189755 7.00318287 5.23428168 5.98363508 -1 4 C-0.67 2.68 -0.34 1.36 0 0 Z " fill="#030303" transform="translate(254,278)"/>
<path d="M0 0 C0.33 0 0.66 0 1 0 C1.16852247 1.60397277 1.33474886 3.2081869 1.5 4.8125 C1.5928125 5.70582031 1.685625 6.59914063 1.78125 7.51953125 C2.37761814 14.28192 2 21.20754935 2 28 C1.01 28.33 0.02 28.66 -1 29 C-1.02465881 25.03069011 -1.04284023 21.06140966 -1.05493164 17.09204102 C-1.05997057 15.74079614 -1.06680177 14.38955674 -1.07543945 13.03833008 C-1.08752419 11.09979566 -1.09269828 9.161222 -1.09765625 7.22265625 C-1.10289307 6.05484619 -1.10812988 4.88703613 -1.11352539 3.68383789 C-1 1 -1 1 0 0 Z " fill="#090B0D" transform="translate(234,256)"/>
<path d="M0 0 C0.99 0.33 1.98 0.66 3 1 C3 6.61 3 12.22 3 18 C2.34 18 1.68 18 1 18 C0.67 18.66 0.34 19.32 0 20 C-1.17829199 17.64341603 -1.04414372 16.47426764 -0.87890625 13.8671875 C-0.83056641 13.06152344 -0.78222656 12.25585938 -0.73242188 11.42578125 C-0.67634766 10.58402344 -0.62027344 9.74226563 -0.5625 8.875 C-0.51029297 8.02550781 -0.45808594 7.17601562 -0.40429688 6.30078125 C-0.27448622 4.20020876 -0.1378826 2.10005809 0 0 Z " fill="#131416" transform="translate(197,290)"/>
<path d="M0 0 C0.33 0.66 0.66 1.32 1 2 C7.6 1.34 14.2 0.68 21 0 C21 0.99 21 1.98 21 3 C8.625 3.495 8.625 3.495 -4 4 C-2.68 2.68 -1.36 1.36 0 0 Z " fill="#0C0C0E" transform="translate(154,323)"/>
<path d="M0 0 C2.20964138 4.41928276 2.10328893 9.21799414 1.87890625 14.0546875 C1.83056641 15.16328125 1.78222656 16.271875 1.73242188 17.4140625 C1.67634766 18.55617187 1.62027344 19.69828125 1.5625 20.875 C1.51029297 22.0403125 1.45808594 23.205625 1.40429688 24.40625 C1.27514203 27.27113925 1.14019818 30.13563347 1 33 C0.67 33 0.34 33 0 33 C-0.33 24.75 -0.66 16.5 -1 8 C-2.32 7.67 -3.64 7.34 -5 7 C-4.54625 6.5875 -4.0925 6.175 -3.625 5.75 C-1.94049626 3.93591905 -1.00734029 2.24714373 0 0 Z " fill="#0B0C0E" transform="translate(238,186)"/>
<path d="M0 0 C1.74965358 -0.05429959 3.49979787 -0.09292823 5.25 -0.125 C6.22453125 -0.14820313 7.1990625 -0.17140625 8.203125 -0.1953125 C11.0196498 0.00137219 12.60949036 0.55431084 15 2 C15 2.33 15 2.66 15 3 C9.72 2.67 4.44 2.34 -1 2 C-0.67 1.34 -0.34 0.68 0 0 Z " fill="#0D0D0F" transform="translate(283,313)"/>
<path d="M0 0 C0.33 0.66 0.66 1.32 1 2 C2.65 2 4.3 2 6 2 C5.67 2.66 5.34 3.32 5 4 C2.03 4 -0.94 4 -4 4 C-2.68 2.68 -1.36 1.36 0 0 Z " fill="#252525" transform="translate(154,323)"/>
<path d="M0 0 C0 0.33 0 0.66 0 1 C-3.63 1.66 -7.26 2.32 -11 3 C-11 2.34 -11 1.68 -11 1 C-7.2297564 -1.56376565 -4.32597804 -0.83191885 0 0 Z " fill="#0C0D0E" transform="translate(166,322)"/>
<path d="M0 0 C0.33 0 0.66 0 1 0 C1 2.97 1 5.94 1 9 C0.67 9 0.34 9 0 9 C0 6.03 0 3.06 0 0 Z " fill="#060606" transform="translate(273,260)"/>
<path d="M0 0 C0.33 0 0.66 0 1 0 C1 2.31 1 4.62 1 7 C0.67 7 0.34 7 0 7 C0 4.69 0 2.38 0 0 Z " fill="#030303" transform="translate(273,225)"/>
</svg>
